<svg width="82" height="16" viewBox="0 0 82 16" fill="none" xmlns="http://www.w3.org/2000/svg">
<g id="Lamenu">
<path d="M0 0H3.9833V12.3871H10.6221V15.7083H0V0Z" fill="#FC7A03"/>
<path d="M16.0456 16C15.4112 16 14.8432 15.9028 14.3416 15.7083C13.8548 15.5138 13.4417 15.252 13.1024 14.9229C12.763 14.5788 12.5049 14.1823 12.3278 13.7335C12.1508 13.2698 12.0623 12.7686 12.0623 12.23C12.0623 11.0482 12.4164 10.1431 13.1245 9.51473C13.8474 8.8864 14.9317 8.57223 16.3775 8.57223H19.7191V8.07854C19.7191 7.36045 19.5494 6.86676 19.2101 6.59748C18.8708 6.31323 18.4061 6.17111 17.8159 6.17111C17.2553 6.17111 16.8422 6.26087 16.5767 6.44039C16.3111 6.61992 16.1636 6.90416 16.1341 7.29313H12.7262C12.7557 6.75456 12.8884 6.26087 13.1245 5.81206C13.3605 5.34829 13.6925 4.95185 14.1203 4.62272C14.5629 4.27864 15.1014 4.00935 15.7358 3.81487C16.3701 3.62038 17.1004 3.52314 17.9266 3.52314C18.6937 3.52314 19.3945 3.6129 20.0289 3.79243C20.678 3.95699 21.2313 4.23375 21.6886 4.62272C22.1459 4.99673 22.5 5.49042 22.7508 6.10379C23.0016 6.7022 23.127 7.43525 23.127 8.30295V12.6788C23.127 13.3072 23.1418 13.8607 23.1713 14.3394C23.2008 14.8032 23.245 15.2595 23.304 15.7083H20.0731C20.0436 15.4539 20.0141 15.2295 19.9846 15.0351C19.9699 14.8406 19.9625 14.6012 19.9625 14.317C19.6084 14.7957 19.1142 15.1996 18.4798 15.5288C17.8602 15.8429 17.0488 16 16.0456 16ZM17.1521 13.5764C17.875 13.5764 18.4798 13.367 18.9667 12.9481C19.4683 12.5292 19.7191 11.9532 19.7191 11.2202V10.7265H17.0414C16.5398 10.7265 16.1636 10.8611 15.9128 11.1304C15.6768 11.3997 15.5587 11.7139 15.5587 12.0729C15.5587 12.5068 15.6768 12.8658 15.9128 13.1501C16.1636 13.4343 16.5767 13.5764 17.1521 13.5764Z" fill="#FC7A03"/>
<path d="M25.231 3.81487H28.4398V5.52034C28.7054 4.99673 29.1184 4.53296 29.6791 4.12903C30.2397 3.72511 30.9331 3.52314 31.7592 3.52314C32.6887 3.52314 33.4042 3.70266 33.9058 4.06171C34.4221 4.42076 34.7983 4.90697 35.0344 5.52034C35.3294 4.95185 35.7794 4.4806 36.3843 4.10659C37.0039 3.71762 37.7416 3.52314 38.5972 3.52314C39.866 3.52314 40.8323 3.88967 41.4962 4.62272C42.1601 5.34081 42.492 6.41795 42.492 7.85414V15.7083H39.0841V8.70687C39.0841 7.8691 38.9513 7.27817 38.6857 6.93408C38.4349 6.57504 38.0219 6.39551 37.4465 6.39551C36.9301 6.39551 36.4876 6.60496 36.1187 7.02384C35.7499 7.42777 35.5655 7.98878 35.5655 8.70687V15.7083H32.1576V8.70687C32.1576 7.8691 32.0248 7.27817 31.7592 6.93408C31.5084 6.57504 31.0953 6.39551 30.52 6.39551C29.9889 6.39551 29.5389 6.60496 29.1701 7.02384C28.816 7.42777 28.639 7.98878 28.639 8.70687V15.7083H25.231V3.81487Z" fill="#FC7A03"/>
<path d="M50.2373 16C49.3816 16 48.5776 15.8803 47.8252 15.641C47.0876 15.3866 46.4458 15.0051 45.8999 14.4965C45.3541 13.9878 44.9262 13.352 44.6164 12.5891C44.3066 11.8111 44.1517 10.906 44.1517 9.87377V9.42496C44.1517 8.43759 44.2992 7.57737 44.5943 6.84432C44.9041 6.11127 45.3172 5.4979 45.8336 5.00421C46.3647 4.51052 46.9843 4.14399 47.6924 3.90463C48.4153 3.6503 49.1899 3.52314 50.016 3.52314C51.9487 3.52314 53.4092 4.03179 54.3977 5.04909C55.3861 6.05143 55.8803 7.51005 55.8803 9.42496V10.6592H47.6482C47.6629 11.123 47.7441 11.5194 47.8916 11.8485C48.0391 12.1627 48.2309 12.4245 48.467 12.6339C48.703 12.8434 48.9686 13.0005 49.2636 13.1052C49.5734 13.195 49.898 13.2398 50.2373 13.2398C50.8864 13.2398 51.3954 13.1426 51.7643 12.9481C52.1478 12.7387 52.3986 12.4619 52.5167 12.1178H55.659C55.423 13.4194 54.8402 14.3918 53.9108 15.0351C52.9814 15.6784 51.7569 16 50.2373 16ZM50.1267 6.26087C49.8169 6.26087 49.5144 6.29827 49.2194 6.37307C48.9391 6.44787 48.6809 6.57504 48.4448 6.75456C48.2235 6.91912 48.0391 7.13604 47.8916 7.40533C47.7588 7.67461 47.6851 8.00374 47.6703 8.39271H52.5388C52.5388 7.97382 52.4724 7.62973 52.3396 7.36045C52.2068 7.09116 52.0298 6.87424 51.8085 6.70968C51.602 6.54511 51.3512 6.43291 51.0561 6.37307C50.761 6.29827 50.4512 6.26087 50.1267 6.26087Z" fill="#FC7A03"/>
<path d="M57.6472 3.81487H60.7896V5.43057C61.0847 4.90697 61.542 4.45816 62.1616 4.08415C62.796 3.71014 63.6369 3.52314 64.6844 3.52314C66.0859 3.52314 67.1408 3.91211 67.8489 4.69004C68.5718 5.45302 68.9333 6.54511 68.9333 7.96634V15.7083H65.5253V8.75175C65.5253 7.97382 65.3557 7.39037 65.0163 7.0014C64.6918 6.59748 64.1533 6.39551 63.4009 6.39551C62.9878 6.39551 62.6337 6.46283 62.3387 6.59748C62.0436 6.71716 61.8002 6.88172 61.6084 7.09116C61.4166 7.30061 61.2765 7.55493 61.1879 7.85414C61.0994 8.13838 61.0552 8.43759 61.0552 8.75175V15.7083H57.6472V3.81487Z" fill="#FC7A03"/>
<path d="M75.0735 16C73.731 16 72.7056 15.611 71.9975 14.8331C71.2893 14.0552 70.9353 12.8733 70.9353 11.2875V3.81487H74.3432V10.7489C74.3432 11.5269 74.4981 12.1178 74.8079 12.5217C75.1325 12.9257 75.6488 13.1276 76.357 13.1276C77.1241 13.1276 77.6848 12.9032 78.0388 12.4544C78.4077 11.9906 78.5921 11.4222 78.5921 10.7489V3.81487H82V15.7083H78.8576V14.0926C78.5626 14.6162 78.0978 15.065 77.4635 15.439C76.8291 15.813 76.0324 16 75.0735 16Z" fill="#FC7A03"/>
</g>
</svg>
