<svg width="22" height="21" viewBox="0 0 22 21" fill="none" xmlns="http://www.w3.org/2000/svg">
<g id="vuesax/bold/frame">
<g id="frame">
<path id="Vector" d="M11 1.75C8.7075 1.75 6.84375 3.61375 6.84375 5.90625C6.84375 8.155 8.6025 9.975 10.895 10.0538C10.965 10.045 11.035 10.045 11.0875 10.0538C11.105 10.0538 11.1137 10.0538 11.1312 10.0538C11.14 10.0538 11.14 10.0538 11.1488 10.0538C13.3888 9.975 15.1475 8.155 15.1562 5.90625C15.1562 3.61375 13.2925 1.75 11 1.75Z" fill="#FDA655"/>
<path id="Vector_2" d="M15.4448 12.3808C13.0036 10.7533 9.02234 10.7533 6.56359 12.3808C5.45234 13.1245 4.83984 14.1308 4.83984 15.207C4.83984 16.2833 5.45234 17.2808 6.55484 18.0158C7.77984 18.8383 9.38984 19.2495 10.9998 19.2495C12.6098 19.2495 14.2198 18.8383 15.4448 18.0158C16.5473 17.272 17.1598 16.2745 17.1598 15.1895C17.1511 14.1133 16.5473 13.1158 15.4448 12.3808Z" fill="#FDA655"/>
</g>
</g>
</svg>
