<svg width="90" height="90" viewBox="0 0 90 90" fill="none" xmlns="http://www.w3.org/2000/svg">
<rect x="0.5" y="0.5" width="89" height="89" rx="11.5" fill="white"/>
<rect x="0.5" y="0.5" width="89" height="89" rx="11.5" stroke="#E9ECEF"/>
<path fill-rule="evenodd" clip-rule="evenodd" d="M38.8861 27.2308H44.186L46.0999 32.0769H37.2911V35.3077H40.6687L41.0277 41.49C42.9359 42.1464 44.3089 43.9762 44.3089 46.1308C44.3089 46.4483 44.279 46.7587 44.2221 47.0594L44.2015 47.1519C46.6734 47.9854 48.4557 50.3473 48.4557 53.1308C48.4557 55.7545 46.8722 58.0036 44.6203 58.9511L44.5235 59.5385H59.7113C60.5558 59.5385 61.2539 58.8718 61.3035 58.0179L62.6226 35.3077H66V32.0769H49.5355L46.3456 24H38.8861V27.2308ZM44.1479 40.1946L43.864 35.3077H59.4271L58.9611 43.3323C55.3617 43.1515 53.9576 42.5821 52.3283 41.9215C52.2922 41.9068 52.2561 41.8922 52.2197 41.8775C50.4779 41.1717 48.4088 40.3726 44.1479 40.1946Z" fill="#C4C4C4"/>
<path d="M38.3544 44.4615C40.4098 44.4615 42.0759 46.1491 42.0759 48.2308C42.0759 48.475 42.053 48.7138 42.0092 48.9451L41.9933 49.0163C43.8948 49.6574 45.2658 51.4742 45.2658 53.6154C45.2658 55.6336 44.0477 57.3637 42.3155 58.0926L41.1608 65.1001C41.0753 65.6194 40.6317 66 40.1119 66H29.1539C28.6341 66 28.1905 65.6194 28.1051 65.1001L27.0112 58.4551C25.328 58.3578 24 56.9514 24 55.2308C24 53.8228 24.8892 52.6253 26.1298 52.1827L26.1266 52C26.1266 48.4314 28.9829 45.5385 32.5063 45.5385C33.4863 45.5385 34.4146 45.7622 35.2443 46.1621C35.9076 45.1381 37.053 44.4615 38.3544 44.4615ZM33.5696 58.4615H31.443V63.8462H33.5696V58.4615ZM37.8228 58.4615H35.6962V63.8462H37.8228V58.4615ZM40.481 56.3077C41.9491 56.3077 43.1392 55.1023 43.1392 53.6154C43.1392 52.1285 41.9491 50.9231 40.481 50.9231C40.1241 50.9231 39.781 50.9933 39.4647 51.1273L39.2782 51.2152C38.2503 51.7516 36.9991 51.3556 36.4468 50.3492L36.3727 50.2014C35.683 48.6842 34.184 47.6923 32.5063 47.6923C30.2285 47.6923 28.369 49.5058 28.2581 51.7496L28.2528 51.9612L28.2561 52.1438C28.2716 53.0137 27.7697 53.8013 26.9949 54.1503L26.8363 54.2142C26.415 54.3645 26.1266 54.7701 26.1266 55.2308C26.1266 55.8256 26.6026 56.3077 27.1899 56.3077H40.481Z" fill="#C4C4C4"/>
</svg>
