<svg width="22" height="21" viewBox="0 0 22 21" fill="none" xmlns="http://www.w3.org/2000/svg">
<g id="vuesax/linear/shopping-cart">
<g id="shopping-cart">
<path id="Vector" d="M2.25 1.75H3.7725C4.7175 1.75 5.46125 2.56375 5.3825 3.5L4.65625 12.215C4.53375 13.6412 5.66249 14.8662 7.09749 14.8662H16.4163C17.6763 14.8662 18.7788 13.8338 18.875 12.5825L19.3475 6.02C19.4525 4.5675 18.35 3.38625 16.8887 3.38625H5.59251" stroke="#222222" stroke-width="1.5" stroke-miterlimit="10" stroke-linecap="round" stroke-linejoin="round"/>
<path id="Vector_2" d="M14.7188 19.25C15.3228 19.25 15.8125 18.7603 15.8125 18.1562C15.8125 17.5522 15.3228 17.0625 14.7188 17.0625C14.1147 17.0625 13.625 17.5522 13.625 18.1562C13.625 18.7603 14.1147 19.25 14.7188 19.25Z" stroke="#222222" stroke-width="1.5" stroke-miterlimit="10" stroke-linecap="round" stroke-linejoin="round"/>
<path id="Vector_3" d="M7.71875 19.25C8.32281 19.25 8.8125 18.7603 8.8125 18.1562C8.8125 17.5522 8.32281 17.0625 7.71875 17.0625C7.11469 17.0625 6.625 17.5522 6.625 18.1562C6.625 18.7603 7.11469 19.25 7.71875 19.25Z" stroke="#292D32" stroke-width="1.5" stroke-miterlimit="10" stroke-linecap="round" stroke-linejoin="round"/>
<path id="Vector_4" d="M8.375 7H18.875" stroke="#292D32" stroke-width="1.5" stroke-miterlimit="10" stroke-linecap="round" stroke-linejoin="round"/>
</g>
</g>
</svg>
