<svg width="22" height="21" viewBox="0 0 22 21" fill="none" xmlns="http://www.w3.org/2000/svg">
<g id="vuesax/linear/profile">
<g id="profile">
<path id="Vector" d="M11.1422 9.51125C11.0547 9.5025 10.9497 9.5025 10.8534 9.51125C8.77094 9.44125 7.11719 7.735 7.11719 5.635C7.11719 3.49125 8.84969 1.75 11.0022 1.75C13.1459 1.75 14.8872 3.49125 14.8872 5.635C14.8784 7.735 13.2247 9.44125 11.1422 9.51125Z" stroke="#222222" stroke-width="1.5" stroke-linecap="round" stroke-linejoin="round"/>
<path id="Vector_2" d="M6.76781 12.74C4.65031 14.1575 4.65031 16.4675 6.76781 17.8762C9.17406 19.4862 13.1203 19.4862 15.5266 17.8762C17.6441 16.4587 17.6441 14.1488 15.5266 12.74C13.1291 11.1388 9.18281 11.1388 6.76781 12.74Z" stroke="#222222" stroke-width="1.5" stroke-linecap="round" stroke-linejoin="round"/>
</g>
</g>
</svg>
