<svg width="22" height="21" viewBox="0 0 22 21" fill="none" xmlns="http://www.w3.org/2000/svg">
<g id="vuesax/bold/home-2">
<g id="home-2">
<path id="Vector" d="M18.0359 5.96748L12.9959 2.44123C11.6222 1.47873 9.51344 1.53123 8.19219 2.55498L3.80844 5.97623C2.93344 6.65873 2.24219 8.05873 2.24219 9.16123V15.1987C2.24219 17.43 4.05344 19.25 6.28469 19.25H15.7172C17.9484 19.25 19.7597 17.4387 19.7597 15.2075V9.27498C19.7597 8.09373 18.9984 6.64123 18.0359 5.96748ZM11.6572 15.75C11.6572 16.1087 11.3597 16.4062 11.0009 16.4062C10.6422 16.4062 10.3447 16.1087 10.3447 15.75V13.125C10.3447 12.7662 10.6422 12.4687 11.0009 12.4687C11.3597 12.4687 11.6572 12.7662 11.6572 13.125V15.75Z" fill="#FDA655"/>
</g>
</g>
</svg>
