<svg width="22" height="21" viewBox="0 0 22 21" fill="none" xmlns="http://www.w3.org/2000/svg">
<g id="vuesax/bold/shopping-cart">
<g id="shopping-cart">
<path id="Vector" d="M14.7188 19.6875C15.5644 19.6875 16.25 19.0019 16.25 18.1562C16.25 17.3106 15.5644 16.625 14.7188 16.625C13.8731 16.625 13.1875 17.3106 13.1875 18.1562C13.1875 19.0019 13.8731 19.6875 14.7188 19.6875Z" fill="#FDA655"/>
<path id="Vector_2" d="M7.71875 19.6875C8.56444 19.6875 9.25 19.0019 9.25 18.1562C9.25 17.3106 8.56444 16.625 7.71875 16.625C6.87306 16.625 6.1875 17.3106 6.1875 18.1562C6.1875 19.0019 6.87306 19.6875 7.71875 19.6875Z" fill="#FDA655"/>
<path id="Vector_3" d="M4.735 3.4475L4.56 5.59125C4.525 6.0025 4.84875 6.34375 5.26 6.34375H18.6562C19.0238 6.34375 19.33 6.06375 19.3562 5.69625C19.47 4.1475 18.2887 2.8875 16.74 2.8875H5.98625C5.89875 2.5025 5.72375 2.135 5.4525 1.82875C5.015 1.365 4.4025 1.09375 3.7725 1.09375H2.25C1.89125 1.09375 1.59375 1.39125 1.59375 1.75C1.59375 2.10875 1.89125 2.40625 2.25 2.40625H3.7725C4.04375 2.40625 4.2975 2.52 4.48125 2.7125C4.665 2.91375 4.7525 3.17625 4.735 3.4475Z" fill="#FDA655"/>
<path id="Vector_4" d="M18.4463 7.65625H5.0238C4.6563 7.65625 4.3588 7.93625 4.3238 8.295L4.0088 12.1012C3.8863 13.5975 5.0588 14.875 6.55505 14.875H16.285C17.5975 14.875 18.7525 13.7988 18.8488 12.4863L19.1375 8.4C19.1725 7.9975 18.8575 7.65625 18.4463 7.65625Z" fill="#FDA655"/>
</g>
</g>
</svg>
